<svg width="29" height="29" viewBox="0 0 29 29" fill="none" xmlns="http://www.w3.org/2000/svg">
<path d="M14.7397 28.2958C22.5534 28.2958 28.8876 21.9616 28.8876 14.1479C28.8876 6.33423 22.5534 0 14.7397 0C6.92603 0 0.591797 6.33423 0.591797 14.1479C0.591797 21.9616 6.92603 28.2958 14.7397 28.2958Z" fill="#ED1C24"/>
<path d="M10.5583 8.42469C11.6393 8.41714 12.6982 8.73087 13.6006 9.32613C14.5031 9.92138 15.2083 10.7713 15.6269 11.7681C16.0455 12.7648 16.1586 13.8634 15.9518 14.9245C15.745 15.9856 15.2275 16.9614 14.4653 17.728C13.703 18.4945 12.7303 19.0174 11.6703 19.2302C10.6104 19.443 9.51118 19.3361 8.5121 18.9231C7.51302 18.5101 6.65898 17.8096 6.05866 16.9105C5.45835 16.0114 5.1387 14.9543 5.14019 13.8732C5.13717 13.1595 5.27512 12.4521 5.54596 11.7917C5.81679 11.1313 6.21524 10.5308 6.71855 10.0246C7.22186 9.51848 7.82005 9.11661 8.47894 8.84206C9.13782 8.56752 9.84448 8.42569 10.5583 8.42469ZM19.2041 8.74518C20.7303 8.74518 21.9131 11.0345 21.9131 13.8732C21.9131 16.712 20.6998 19.0089 19.2041 19.0089C17.7084 19.0089 16.4952 16.7196 16.4952 13.8732C16.4952 11.0269 17.7084 8.74518 19.2041 8.74518ZM23.3861 9.27936C23.9126 9.27936 24.3399 11.3321 24.3399 13.858C24.3399 16.3838 23.9126 18.4366 23.3861 18.4366C22.8595 18.4366 22.4396 16.3762 22.4396 13.858C22.4396 11.3397 22.8595 9.27936 23.3861 9.27936Z" fill="black"/>
</svg>
