<svg width="29" height="29" viewBox="0 0 29 29" fill="none" xmlns="http://www.w3.org/2000/svg">
<path d="M14.4438 28.2958C22.2575 28.2958 28.5917 21.9616 28.5917 14.1479C28.5917 6.33423 22.2575 0 14.4438 0C6.63013 0 0.295898 6.33423 0.295898 14.1479C0.295898 21.9616 6.63013 28.2958 14.4438 28.2958Z" fill="#ED1C24"/>
<path d="M21.3344 8.40167C21.3223 8.34507 21.2955 8.29267 21.2566 8.24979C21.2178 8.2069 21.1682 8.17504 21.1131 8.15747C20.9142 8.11831 20.7084 8.13413 20.5178 8.20326C20.5178 8.20326 7.29334 12.9574 6.53787 13.484C6.37762 13.5984 6.32425 13.6594 6.29372 13.7357C6.164 14.1097 6.56843 14.2776 6.56843 14.2776L9.97947 15.3917C10.0372 15.4053 10.0973 15.4053 10.155 15.3917C10.9181 14.9033 17.9539 10.4697 18.3583 10.3171C18.427 10.3171 18.4728 10.3171 18.4575 10.3628C18.2973 10.9352 12.1925 16.3608 12.1925 16.3608V16.4219L11.8719 19.8024C11.8719 19.8024 11.7423 20.8402 12.7801 19.8024C13.5432 19.0775 14.2147 18.467 14.5657 18.1694C15.7409 18.9782 17 19.8711 17.5495 20.3366C17.6397 20.4255 17.7472 20.495 17.8652 20.541C17.9833 20.5869 18.1096 20.6082 18.2362 20.6037C18.7551 20.6037 18.9001 20.0161 18.9001 20.0161C18.9001 20.0161 21.3115 10.3171 21.3878 9.01978C21.3878 8.89005 21.3878 8.81378 21.3878 8.72221C21.3833 8.61357 21.3654 8.50588 21.3344 8.40167Z" fill="black"/>
</svg>
