<svg width="29" height="29" viewBox="0 0 29 29" fill="none" xmlns="http://www.w3.org/2000/svg">
<path d="M14.1479 28.2958C21.9616 28.2958 28.2958 21.9616 28.2958 14.1479C28.2958 6.33423 21.9616 0 14.1479 0C6.33423 0 0 6.33423 0 14.1479C0 21.9616 6.33423 28.2958 14.1479 28.2958Z" fill="#ED1C24"/>
<path d="M11.2937 22.2978C12.699 22.3059 14.0919 22.035 15.3917 21.501C16.6915 20.967 17.8725 20.1804 18.8662 19.1867C19.8598 18.193 20.6464 17.0121 21.1804 15.7123C21.7145 14.4125 21.9853 13.0196 21.9772 11.6143C21.9772 11.4541 21.9772 11.2862 21.9772 11.1259C22.7144 10.595 23.3503 9.93587 23.8545 9.18004C23.1695 9.48833 22.441 9.68907 21.6948 9.77524C22.4807 9.30597 23.0672 8.56475 23.3431 7.69199C22.6086 8.13299 21.803 8.44286 20.9623 8.60772C20.4477 8.0553 19.7785 7.67086 19.042 7.50456C18.3056 7.33827 17.5362 7.39786 16.8341 7.67554C16.1321 7.95323 15.5301 8.43612 15.1066 9.06118C14.6832 9.68624 14.4581 10.4244 14.4606 11.1794C14.4588 11.4672 14.4922 11.7542 14.5598 12.034C13.0662 11.9588 11.6049 11.5708 10.2707 10.8952C8.93642 10.2195 7.75893 9.2712 6.81435 8.11168C6.47683 8.68227 6.30021 9.33364 6.30313 9.99657C6.30226 10.6154 6.45431 11.2249 6.74588 11.7707C7.03744 12.3166 7.45944 12.7819 7.97427 13.1253C7.37784 13.1028 6.795 12.9408 6.27257 12.6521V12.7056C6.27492 13.5778 6.58086 14.4219 7.13786 15.0931C7.69486 15.7643 8.46816 16.2206 9.32498 16.3837C9.00248 16.4763 8.66842 16.5225 8.33291 16.5211C8.0972 16.5213 7.86211 16.4983 7.63092 16.4524C7.87099 17.199 8.33836 17.852 8.96774 18.3199C9.59712 18.7878 10.357 19.0474 11.1412 19.0622C9.80886 20.1071 8.16416 20.6741 6.47099 20.6723C6.17265 20.6702 5.87459 20.6524 5.57812 20.6189C7.29794 21.7202 9.29739 22.3055 11.3396 22.3054" fill="black"/>
</svg>
