<?xml version="1.0" encoding="UTF-8"?><svg id="Layer_2" xmlns="http://www.w3.org/2000/svg" viewBox="0 0 367.57 125.28"><defs><style>.cls-1{fill:#fff;}</style></defs><g id="Layer_1-2"><g><path class="cls-1" d="M179.54,98.5c-.43,.08-.85,.23-1.27,.23-5.34,.02-10.67,.02-16.01,.02-.25,0-.5-.07-.85-.12-.11-.33-.29-.66-.33-1.02-.07-.63-.07-1.27-.07-1.9,0-6.92,0-13.85-.01-20.77,0-.51,.02-1.02-.04-1.52-.1-.93-.53-1.38-1.48-1.42-1.33-.06-2.67-.04-4-.04-8.89,0-17.79,.02-26.68,.03-.51,0-1.02,0-1.52,.03-.85,.06-1.1,.3-1.13,1.2-.04,1.21-.03,2.41-.03,3.62,.02,9.53,.01,19.06,.09,28.59,.01,1.53-.49,2.62-1.56,3.67-4.71,4.63-9.36,9.33-14.03,14.01-.49,.49-.93,1.04-1.44,1.53-.27,.26-.59,.49-.94,.62-.16,.06-.57-.12-.61-.26-.13-.48-.19-.99-.19-1.49-.02-2.79-.01-5.59-.01-8.39-.01-12.96-.03-25.92-.05-38.87-.02-14.42-.04-28.84-.06-43.26,0-1.46,0-2.92,0-4.38,0-.63-.1-1.28,.47-1.92,.39-.04,.89-.12,1.38-.12,5.4,.02,10.79,.06,16.19,.1,.16,0,.33,.17,.47,.25,.4,.68,.25,1.4,.25,2.08,.02,7.31,.01,14.61,.02,21.92,0,.75-.16,1.53,.39,2.3,.51,.03,1.07,.09,1.63,.09,9.91,0,19.82,0,29.73,0,.63,0,1.27,0,1.9-.07,.75-.08,1.13-.5,1.22-1.24,.02-.19,0-.38,0-.57-.02-3.94-.06-7.87-.07-11.81,0-2.99,.02-5.97,.02-8.96,0-2.86,.01-5.72,.01-8.58,0-1.07,0-2.15-.05-3.22-.04-.85,.37-1.44,.94-2,.73-.71,1.42-1.46,2.13-2.18,4.49-4.5,8.98-9,13.47-13.49,.27-.27,.54-.54,.82-.79,.28-.25,.58-.55,1-.34,.4,.21,.39,.64,.4,1,.03,1.59,.03,3.18,.03,4.76,0,9.46,.01,18.93,.02,28.39,.01,12.45,.03,24.9,.05,37.35,.01,7.75,.04,15.5,.04,23.25,0,1.19,.14,2.4-.25,3.67Z"/><path class="cls-1" d="M295.42,26.69c.6-.46,1.27-.31,1.88-.32,2.6-.04,5.21-.03,7.81-.04,14.04,0,28.08-.01,42.12-.02,5.65,0,11.31-.02,16.96-.02,.95,0,1.89,.05,2.92,.08,.14,.48,.32,.89,.36,1.31,.06,.63,.04,1.27,.04,1.9,0,11.31,.02,22.61,.02,33.92,0,10.99,.02,21.98,.03,32.96,0,2.1-.04,2.12-2.12,2.12-13.79,0-27.57,.01-41.35,.02-8.77,0-17.53,.01-26.3,.02-.57,0-1.14,0-1.71-.06-.42-.04-.71-.3-.76-.73-.07-.57-.11-1.14-.12-1.71-.02-2.67-.02-5.34-.02-8,0-7.05,0-14.1-.02-21.15-.02-12.58-.04-25.15-.04-37.73,0-.87-.18-1.78,.3-2.57Zm18.57,18.44c-.04,.82-.09,1.39-.09,1.95,0,1.59,.01,3.17,.02,4.76,0,8.63,.02,17.26,.03,25.89,0,.38,0,.76,.04,1.14,.07,.59,.37,.92,.98,1,.63,.08,1.26,.09,1.9,.09,3.49,0,6.98-.02,10.47-.03,6.54,0,13.08-.01,19.61-.02,.56,0,1.14,.1,1.76-.34,.04-.48,.11-1.04,.11-1.6,.01-1.78,0-3.55-.01-5.33-.01-8.38-.02-16.75-.03-25.13,0-.44,.01-.89-.05-1.33-.1-.71-.53-1.11-1.28-1.17-.57-.05-1.14-.04-1.71-.04-9.96,0-19.93,.01-29.89,.03-.56,0-1.11,.08-1.84,.13Z"/><path class="cls-1" d="M287,98.15c-.81,.65-1.54,.49-2.22,.5-3.11,.03-6.22,.02-9.34,.02-14.1,0-28.2,.01-42.3,.02-5.14,0-10.29,.04-15.43,.04-.88,0-1.78,.14-2.62-.26-.53-.68-.38-1.47-.39-2.21-.03-2.03,0-4.06,0-6.1-.02-14.61-.03-29.22-.08-43.82,0-1.31,.38-2.27,1.34-3.18,2.3-2.19,4.51-4.47,6.75-6.73,.44-.45,1-.89,1.2-1.45,.36-.98,.99-1.55,1.88-2.02,.6-.32,1.13-.81,1.63-1.29,1.33-1.28,2.65-2.56,3.91-3.91,.94-1,1.99-1.38,3.37-1.37,9.4,.04,18.8,0,28.2,0,7.24,0,14.48-.02,21.72,0,.66,0,1.41-.24,2.05,.47-.12,.24-.22,.53-.4,.76-.36,.44-.76,.86-1.16,1.26-4.76,4.77-9.52,9.53-14.28,14.3-.31,.31-.65,.61-.95,.93-.64,.71-1.43,.98-2.38,.97-2.48-.03-4.95,0-7.43,0-5.34,0-10.67,.02-16.01-.01-1.2,0-2.23,.22-3.1,1.14-2.15,2.25-4.31,4.49-6.52,6.68-.8,.79-1.07,1.64-1.06,2.72,.04,4.64,.02,9.27,.06,13.91,.01,1.52-.12,3.05,.21,4.56,.09,.41-.04,.88-.09,1.32-.16,1.45-.17,2.9-.02,4.21,.67,.63,1.35,.45,1.96,.46,4.19,.02,8.38,0,12.58,0,5.97-.01,11.94-.03,17.91-.04,2.32,0,2.33,0,2.33-2.29,0-1.84-.03-3.67-.05-5.4-.57-.59-1.17-.45-1.72-.45-3.56-.01-7.11,0-10.67,0-5.46,0-10.93,0-16.39,0-.69,0-1.38,.04-2.15-.34,.14-.34,.21-.63,.37-.87,.17-.26,.41-.48,.64-.71,5.16-5.17,10.33-10.34,15.47-15.53,.86-.87,1.8-1.24,3.04-1.24,9.4,.03,18.8,0,28.2-.01,1.8,0,1.97,.15,1.98,1.94,.02,5.02,.01,10.04,.02,15.05,.01,8.38,.03,16.77,.03,25.15,0,.95-.05,1.89-.08,2.83Z"/><path class="cls-1" d="M27.18,26.85c.2-.05,.44-.16,.68-.18,2.54-.18,69.58-.11,70.89,.07,.59,.54,.43,1.28,.43,1.96,.02,4.76,0,9.53,.02,14.29,0,.63,.04,1.26-.15,1.79-.67,.59-1.41,.44-2.09,.45-3.3,.03-6.61,.02-9.91,.02-12.52,.01-25.03,.03-37.55,.04-.51,0-1.02,0-1.52,0-2.05,.02-2.35,.3-2.38,2.28-.03,1.65-.04,3.3-.04,4.95,0,5.34,.03,10.67,.05,16.01,0,.32,.02,.64-.01,.95-.14,1.51,.42,2.63,1.56,3.67,1.97,1.8,3.84,3.71,5.67,5.65,.99,1.05,2.1,1.46,3.54,1.46,10.29-.05,20.58-.05,30.88-.06,3.11,0,6.23-.02,9.34-.03,.38,0,.76-.02,1.14,0,1.27,.07,1.53,.31,1.54,1.64,.03,2.73,.02,5.46,.02,8.19,0,.38,.04,.77,0,1.14-.14,1.07,.85,2.01,.28,3.15-.5,1.01-.2,2.13-.29,3.2-.1,1.1-.27,1.33-1.39,1.35-3.11,.03-6.23,.02-9.34,.02-13.66,.02-27.31,.03-40.97,.05-.19,0-.38-.03-.57,0-1.38,.17-2.4-.38-3.36-1.37-3.97-4.03-7.99-8-12-11.99-1.22-1.21-2.42-2.44-3.67-3.61-.8-.75-1.14-1.62-1.12-2.71,.04-2.16,0-4.32,0-6.48-.02-14.55-.04-29.09-.05-43.64,0-.74-.15-1.54,.38-2.27Z"/><path class="cls-1" d="M18.78,80.76c-.25,.33-.45,.65-.72,.92-.58,.59-1.19,1.14-1.78,1.72-4.63,4.62-9.24,9.25-13.87,13.87-.45,.45-.94,.85-1.43,1.24-.25,.2-.72,0-.76-.31-.07-.56-.12-1.13-.13-1.7-.01-6.28,.02-12.57-.04-18.85-.05-5.13,.03-10.27-.03-15.4-.06-5.08,0-10.16,0-15.23,0-.51-.03-1.02,.03-1.52,.04-.36,.11-.81,.35-1.05,.98-.99,1.73-2.15,2.81-3.09,2.02-1.74,3.85-3.69,5.73-5.57,2.56-2.56,5.1-5.14,7.65-7.7,.36-.36,.76-.67,1.17-.97,.35-.25,.83-.07,.9,.33,.07,.37,.1,.75,.1,1.13,0,7.49,0,14.98,.02,22.47,0,9.27,.02,18.54,.03,27.81,0,.63-.03,1.27-.04,1.9Z"/><path class="cls-1" d="M188.39,98.41c-.67-.45-.49-1.14-.5-1.74-.03-2.28-.01-4.57-.02-6.85-.02-14.02-.06-28.05-.05-42.07,0-3.69-.42-2.78,2.25-5.45,4.71-4.72,9.43-9.43,14.14-14.14,.13-.13,.25-.29,.4-.41,.46-.38,.82-1.19,1.53-.83,.66,.33,.41,1.12,.41,1.73,.01,4.63,.01,9.26,.02,13.9,.01,10.28,.03,20.56,.05,30.84,0,1.9-.02,3.81,.02,5.71,.03,1.09-.31,1.95-1.13,2.69-1.87,1.71-3.53,3.64-5.35,5.4-3.42,3.31-6.74,6.73-10.11,10.09-.48,.48-.88,1.11-1.67,1.13Z"/></g></g></svg>